# xmcd
#
# Track frame offsets: 
#        150
#        16617
#        27540
#        47220
#        58663
#        74527
#        88831
#        105163
#        120546
#        140835
#        175469
#        198944
#
# Disc length: 2986 seconds
#
# Revision: 0
# Processed by: cddbd v1.5.2PL0 Copyright (c) Steve Scherf et al.
# Submitted via: ExactAudioCopy v0.99pb3
#
DISCID=a80ba80c
DTITLE=Fiver - Strings For Satellites
DYEAR=2001
DGENRE=Fierce Panda
TTITLE0=Turning Your Back On The Bull
TTITLE1=Don't Tell Me How To Rock, I'm From Here
TTITLE2=Mini-Bunny
TTITLE3=The Devil Is Undeniably Real
TTITLE4=The Launch
TTITLE5=Fun Summer Drinks
TTITLE6=Past From The Future
TTITLE7=Please Form 1 Line
TTITLE8=This Is Up
TTITLE9=Theme From Lo-Down
TTITLE10=Smoothie (live on XFM 16.11.00)
TTITLE11=Builder (live on XFM 16.11.00)
EXTD=
EXTT0=
EXTT1=
EXTT2=
EXTT3=
EXTT4=
EXTT5=
EXTT6=
EXTT7=
EXTT8=
EXTT9=
EXTT10=
EXTT11=
PLAYORDER=
